<svg width="72" height="76" viewBox="0 0 72 76" fill="none" xmlns="http://www.w3.org/2000/svg">
<path d="M72 76V0H0V13.8477V27.0887V76H72Z" fill="url(#paint0_linear_642_2)"/>
<path d="M9.28857 45.9199H10.9085V54.6508H15.3687V56.1614H9.28857V45.9199Z" fill="white"/>
<path d="M22.9135 52.8739H17.6766C17.8097 54.1624 18.5198 54.9177 19.6072 54.9177C20.4948 54.9177 21.0495 54.5178 21.5377 53.6514L22.8026 54.1402C22.1591 55.562 21.1605 56.2507 19.5406 56.2507C17.2772 56.2507 16.1011 54.4067 16.1011 52.4517C16.1011 50.4968 17.2772 48.6528 19.5406 48.6528C21.7374 48.6528 22.9135 50.4079 22.9135 52.2074V52.8739ZM21.338 51.6075C21.1605 50.6523 20.5835 50.008 19.5406 50.008C18.6752 50.008 17.9873 50.5856 17.7432 51.6075H21.338Z" fill="white"/>
<path d="M23.313 48.7859H24.8663L26.5306 54.2066L28.1727 48.7637H29.726L27.2407 56.1171H25.8205L23.313 48.7859Z" fill="white"/>
<path d="M33.3207 51.6073H34.6078V51.2963C34.6078 50.4299 34.0308 50.0078 33.2098 50.0078C32.4997 50.0078 32.0115 50.341 31.7896 51.0075L30.4582 50.6964C30.7022 49.4746 31.7896 48.6748 33.2098 48.6748C35.0294 48.6748 36.1389 49.6967 36.1389 51.6073V56.1616H34.8962L34.6965 55.1618C34.1639 55.9172 33.3873 56.2726 32.4109 56.2726C31.1017 56.2726 30.1697 55.4729 30.1697 54.0288C30.1697 52.5182 31.3902 51.6073 33.3207 51.6073ZM34.6078 52.8736H33.3873C32.3443 52.8736 31.7896 53.2513 31.7896 54.0066C31.7896 54.5398 32.189 54.9175 32.7881 54.9175C33.6758 54.9175 34.6078 54.251 34.6078 53.0513V52.8736Z" fill="white"/>
<path d="M37.6701 48.7859H39.2235V50.0744C39.756 49.208 40.6215 48.6748 41.5757 48.6748C42.9293 48.6748 43.8391 49.4968 43.8391 50.963V56.1616H42.2857V51.3629C42.2857 50.4743 41.8419 50.03 41.0875 50.03C40.0667 50.03 39.2013 51.2074 39.2013 53.1402V56.1616H37.6479V48.7859H37.6701Z" fill="white"/>
<path d="M45.7474 50.119H44.5713V48.786H45.7474V46.7866L47.3007 45.8091V48.786H49.2535V50.119H47.3007V53.7179C47.3007 54.5844 47.6336 54.9176 48.2771 54.9176C48.5656 54.9176 48.8318 54.8509 49.0538 54.7176L49.4088 55.984C49.0538 56.1617 48.6543 56.2505 48.1883 56.2505C46.6572 56.2505 45.7474 55.3841 45.7474 53.6735V50.119Z" fill="white"/>
<path d="M53.0924 51.6073H54.3795V51.2963C54.3795 50.4299 53.8025 50.0078 52.9815 50.0078C52.2714 50.0078 51.7832 50.341 51.5613 51.0075L50.2299 50.6964C50.474 49.4746 51.5613 48.6748 52.9815 48.6748C54.8011 48.6748 55.9106 49.6967 55.9106 51.6073V56.1616H54.668L54.4682 55.1618C53.9357 55.9172 53.159 56.2726 52.1826 56.2726C50.8734 56.2726 49.9414 55.4729 49.9414 54.0288C49.9414 52.5182 51.1619 51.6073 53.0924 51.6073ZM54.3795 52.8736H53.159C52.1161 52.8736 51.5613 53.2513 51.5613 54.0066C51.5613 54.5398 51.9607 54.9175 52.5599 54.9175C53.4475 54.9175 54.3795 54.251 54.3795 53.0513V52.8736Z" fill="white"/>
<path d="M9 61.4934H11.3966V62.3376C11.796 61.76 12.5948 61.3823 13.4825 61.3823C15.1246 61.3823 15.9234 62.2487 15.9234 63.8039V68.8691H13.5268V64.5148C13.5268 63.8927 13.2162 63.5151 12.7058 63.5151C11.8848 63.5151 11.3966 64.2704 11.3966 65.6256V68.8691H9V61.4934Z" fill="white"/>
<path d="M20.2283 64.337H21.4044V64.0927C21.4044 63.4706 21.0493 63.1374 20.317 63.1374C19.7623 63.1374 19.4072 63.404 19.2297 63.9371L17.3879 63.4928C17.6764 62.271 18.7637 61.3823 20.317 61.3823C22.4695 61.3823 23.5568 62.4043 23.5568 64.4703V68.8691H21.715L21.5597 68.0693C21.0493 68.6913 20.428 68.9802 19.4738 68.9802C18.8081 68.9802 18.2533 68.7802 17.8095 68.4025C17.3657 68.0249 17.1438 67.4473 17.1438 66.7586C17.1438 65.2479 18.2311 64.337 20.2283 64.337ZM21.4044 65.9366H20.2505C19.7179 65.9366 19.385 66.2032 19.385 66.6031C19.385 67.0029 19.6957 67.1807 20.1617 67.1807C20.9162 67.1807 21.4265 66.6919 21.4265 66.0254V65.9366H21.4044Z" fill="white"/>
<path d="M28.5276 58.6274H31.1239V66.6252H35.3179V68.8468H28.5276V58.6274Z" fill="white"/>
<path d="M39.9112 61.3823C42.3965 61.3823 43.7945 63.0929 43.7945 65.1812C43.7945 67.2695 42.4187 68.9802 39.9112 68.9802C37.4258 68.9802 36.0278 67.2695 36.0278 65.1812C36.05 63.0929 37.4258 61.3823 39.9112 61.3823ZM39.9112 63.4262C38.9126 63.4262 38.4244 64.0927 38.4244 65.1812C38.4244 66.2698 38.9126 66.9363 39.9112 66.9363C40.9097 66.9363 41.3979 66.2698 41.3979 65.1812C41.4201 64.0927 40.9097 63.4262 39.9112 63.4262Z" fill="white"/>
<path d="M43.4395 69.9797C44.5268 69.7353 45.015 69.3577 45.015 68.2469V61.5155H47.4115V68.0914C47.4115 70.424 46.1467 71.6903 44.0386 71.9792L43.4395 69.9797ZM46.2133 57.7832C47.0343 57.7832 47.6334 58.4052 47.6334 59.205C47.6334 60.0048 47.0121 60.6268 46.2133 60.6268C45.4144 60.6268 44.7931 60.0048 44.7931 59.205C44.7709 58.4052 45.3922 57.7832 46.2133 57.7832Z" fill="white"/>
<path d="M51.7166 64.337H52.8927V64.0927C52.8927 63.4706 52.5377 63.1374 51.8054 63.1374C51.2506 63.1374 50.8956 63.404 50.7181 63.9371L48.8763 63.4928C49.1647 62.271 50.2521 61.3823 51.8054 61.3823C53.9579 61.3823 55.0452 62.4043 55.0452 64.4703V68.8691H53.2034L53.0481 68.0693C52.5377 68.6913 51.9163 68.9802 50.9622 68.9802C50.2964 68.9802 49.7417 68.7802 49.2979 68.4025C48.8541 68.0027 48.6322 67.4473 48.6322 66.7586C48.61 65.2479 49.7195 64.337 51.7166 64.337ZM52.8705 65.9366H51.7166C51.1841 65.9366 50.8512 66.2032 50.8512 66.6031C50.8512 67.0029 51.1619 67.1807 51.6279 67.1807C52.3823 67.1807 52.8927 66.6919 52.8927 66.0254V65.9366H52.8705Z" fill="white"/>
<path d="M49.7381 6.39746H12.2363C10.4167 6.39746 8.92993 7.88593 8.92993 9.70763V37.011C8.92993 39.077 10.6164 40.7432 12.6579 40.7432H28.635H34.4711H49.7381C51.8018 40.7432 53.4661 39.077 53.4661 37.011V10.1519C53.4661 8.08587 51.8018 6.39746 49.7381 6.39746ZM29.3007 38.4328V31.1237H33.8276V38.4328H29.3007ZM51.1583 37.011C51.1583 37.7885 50.5148 38.4328 49.7381 38.4328H36.1354V30.4573C36.1354 29.5464 35.3809 28.7911 34.4711 28.7911H28.635C27.7252 28.7911 26.9707 29.5464 26.9707 30.4573V38.4328H12.6801C11.9034 38.4328 11.2599 37.7885 11.2599 37.011V9.70763C11.2599 9.15223 11.7037 8.70791 12.2585 8.70791H49.7603C50.5369 8.70791 51.1805 9.35217 51.1805 10.1297V37.011H51.1583Z" fill="white"/>
<path d="M16.0752 14.706L15.4983 17.6163L17.8283 16.3722L16.275 24.2588H18.96L21.2012 12.7954H19.7367L16.0752 14.706Z" fill="white"/>
<path d="M21.867 19.3493L23.7532 19.7714C24.1526 19.1938 24.774 18.8828 25.4397 18.8828C26.172 18.8828 26.638 19.3493 26.638 20.2158C26.638 21.2599 25.9944 22.0153 25.0624 22.0153C24.3523 22.0153 23.8198 21.5487 23.8198 20.7712L21.3344 21.1044C21.3123 21.171 21.3123 21.2599 21.3123 21.4154C21.3123 23.1483 22.7546 24.3924 24.8627 24.3924C27.5034 24.3924 29.3452 22.4818 29.3452 19.8825C29.3452 17.8387 28.1913 16.6834 26.2829 16.6834C25.7503 16.6834 25.2621 16.7945 24.7961 17.0167L25.4397 15.0839H29.6115L30.0331 12.8179H23.731L21.867 19.3493Z" fill="white"/>
<path d="M37.3338 18.9272C36.5571 18.9272 35.9136 19.3049 35.5585 19.8381C35.3588 19.2605 34.9594 18.9272 34.2271 18.9272C33.628 18.9272 33.0732 19.1938 32.696 19.6604L32.8291 19.0161H31.2092L30.1663 24.3924H31.7862L32.23 22.0597C32.4519 20.9267 32.8957 20.3713 33.4726 20.3713C33.7833 20.3713 33.9608 20.549 33.9608 20.8822C33.9608 20.9267 33.9608 21.0155 33.9386 21.1266L33.3173 24.3924H34.9372L35.381 22.0597C35.6029 20.9045 36.0689 20.3935 36.6459 20.3935C36.9565 20.3935 37.1119 20.5712 37.1119 20.86C37.1119 20.9489 37.1119 21.0378 37.0897 21.1266L36.4683 24.3924H38.0882L38.7761 20.7712C38.7983 20.6157 38.8205 20.4824 38.8205 20.3046C38.7983 19.4604 38.3101 18.9272 37.3338 18.9272Z" fill="white"/>
<path d="M41.6609 16.2837C41.0617 16.2837 40.6179 16.7502 40.6179 17.3278C40.6179 17.9054 41.0617 18.372 41.6609 18.372C42.26 18.372 42.7038 17.9054 42.7038 17.3278C42.7038 16.7502 42.26 16.2837 41.6609 16.2837Z" fill="white"/>
<path d="M39.4194 24.3701H41.1947L42.2154 19.0161H40.4624L39.4194 24.3701Z" fill="white"/>
<path d="M46.7203 18.9272C46.0546 18.9272 45.522 19.1716 45.167 19.6382L45.3001 19.0161H43.5249L42.4819 24.3924H44.2572L44.7232 22.0375C44.9007 21.0378 45.3667 20.4824 45.9214 20.4824C46.2543 20.4824 46.454 20.6823 46.454 21.0155C46.454 21.06 46.454 21.1266 46.4318 21.2155L45.8105 24.3924H47.5857L48.2514 20.9489C48.2736 20.8156 48.2958 20.6601 48.2958 20.4824C48.2736 19.5271 47.6967 18.9272 46.7203 18.9272Z" fill="white"/>
<defs>
<linearGradient id="paint0_linear_642_2" x1="-3.46269" y1="5.41076" x2="82.142" y2="60.1352" gradientUnits="userSpaceOnUse">
<stop offset="0.2373" stop-color="#08A96C"/>
<stop offset="0.3809" stop-color="#1FAB6F"/>
<stop offset="0.5335" stop-color="#3EB079"/>
<stop offset="0.6903" stop-color="#61B98A"/>
<stop offset="0.8489" stop-color="#86C7A2"/>
<stop offset="0.9879" stop-color="#A7D5BD"/>
</linearGradient>
</defs>
</svg>
