<svg width="50" height="28" viewBox="0 0 50 28" fill="none" xmlns="http://www.w3.org/2000/svg">
<path d="M4.66309 2H34.4769C34.8151 2 35.0892 2.27411 35.0892 2.61224V11.2335C35.0892 11.5716 35.3633 11.8457 35.7014 11.8457H44.8638C45.0599 11.8457 45.2441 11.9396 45.3593 12.0984L47.5464 15.1121C47.6222 15.2167 47.6631 15.3426 47.6631 15.4717V22.3878C47.6631 22.7259 47.389 23 47.0508 23H43.96" stroke="#D13528" stroke-width="3" stroke-linecap="round"/>
<path d="M35.6631 4H40.832C40.8796 4 40.9269 4.00524 40.973 4.01735C41.5932 4.18021 42.8836 4.70864 43.6043 5.67742C44.3529 6.68387 45.2888 10.3118 45.6631 12" stroke="#D13528" stroke-width="3" stroke-linecap="round"/>
<path d="M3.66309 7H11.6631" stroke="#D13528" stroke-width="3" stroke-linecap="round"/>
<path d="M1.66309 12H9.66309" stroke="#D13528" stroke-width="3" stroke-linecap="round"/>
<path d="M3.66309 17H7.66309" stroke="#D13528" stroke-width="3" stroke-linecap="round"/>
<path d="M4.66309 23H7.66309" stroke="#D13528" stroke-width="3" stroke-linecap="round"/>
<path d="M14.6631 23H36.6631" stroke="#D13528" stroke-width="3" stroke-linecap="round"/>
<circle cx="10.8289" cy="22.8777" r="2.93878" stroke="#D13528" stroke-width="3"/>
<circle cx="40.8899" cy="22.7552" r="2.93878" stroke="#D13528" stroke-width="3"/>
<path d="M18.3731 17.1532C20.9681 17.1532 22.4231 15.1432 22.4231 11.7832C22.4231 8.4232 20.9681 6.4132 18.3731 6.4132C15.7781 6.4132 14.3231 8.4232 14.3231 11.7832C14.3231 15.1432 15.7781 17.1532 18.3731 17.1532ZM18.3731 14.9932C17.2631 14.9932 16.6631 13.8382 16.6631 11.7832C16.6631 9.7282 17.2631 8.5732 18.3731 8.5732C19.4831 8.5732 20.0831 9.7282 20.0831 11.7832C20.0831 13.8382 19.4831 14.9932 18.3731 14.9932ZM28.812 17.1532C30.372 17.1532 31.512 16.5382 32.247 15.2482L30.372 14.0032C30.042 14.6332 29.502 14.9932 28.812 14.9932C28.152 14.9932 27.432 14.8732 27.042 13.9132H29.172L30.042 12.0532H26.742C26.742 11.9632 26.742 11.8732 26.742 11.7832V11.5132H29.172L30.042 9.6532H27.042C27.432 8.6332 28.137 8.4532 28.812 8.4532C29.502 8.4532 29.982 8.8282 30.297 9.3532L32.202 8.2282C31.602 7.1182 30.477 6.4132 28.812 6.4132C27.237 6.4132 25.347 7.1332 24.687 9.6532H24.012L23.142 11.5132H24.432C24.432 11.6032 24.432 11.6932 24.432 11.7832V12.0532H24.012L23.142 13.9132H24.687C25.347 16.4332 27.237 17.1532 28.812 17.1532Z" fill="#D13528"/>
</svg>
