<svg width="72" height="76" viewBox="0 0 72 76" fill="none" xmlns="http://www.w3.org/2000/svg">
<path d="M72 76V0H0V13.8477V27.0887V76H72Z" fill="url(#paint0_linear_712_25)"/>
<path d="M10 46H15.8521V47.4751H11.5423V49.9479H15.0282V51.4013H11.5423V54.5249H16V56H10V46Z" fill="white"/>
<path d="M18 49.1036H19.5108V50.3047C19.9856 49.5177 20.8489 49.0207 21.7986 49C23.1151 49 24 49.7663 24 51.1331V55.9793H22.5108V51.5266C22.5108 50.6982 22.0791 50.284 21.3453 50.284C20.3525 50.284 19.5108 51.3817 19.5108 53.1834V56H18V49.1036Z" fill="white"/>
<path d="M26.2156 50.1401H25V48.845H26.2156V46.9342L27.8211 46V48.845H29.8395V50.1401H27.8211V53.5796C27.8211 54.4076 28.1651 54.7261 28.8303 54.7261C29.1055 54.7261 29.3807 54.6624 29.633 54.535L30 55.7452C29.6101 55.9151 29.1743 56 28.7385 56C27.156 56 26.2156 55.172 26.2156 53.5372V50.1401Z" fill="white"/>
<path d="M31 49.125H32.327V50.2708C32.6872 49.5 33.4076 49.0208 34.1848 49C34.4692 49 34.7346 49.0625 35 49.1667L34.7536 50.5C34.5261 50.3542 34.2796 50.2917 34.0332 50.2917C33.0474 50.2917 32.346 51.3333 32.346 53.4792V56H31.019V49.125H31Z" fill="white"/>
<path d="M41.9772 52.898H36.5961C36.7329 54.0816 37.4625 54.7755 38.6026 54.7755C39.5147 54.7755 40.0847 54.4082 40.5863 53.6122L41.886 54.0612C41.2248 55.3673 40.1987 56 38.5342 56C36.2085 56 35 54.3061 35 52.5102C35 50.7143 36.2085 49 38.5342 49C40.7915 49 42 50.6122 42 52.2857L41.9772 52.898ZM40.3583 51.7347C40.1759 50.8571 39.5831 50.2653 38.5114 50.2653C37.6221 50.2653 36.9153 50.7959 36.6645 51.7347H40.3583Z" fill="white"/>
<path d="M43.7331 55.1023C43.402 54.7906 43.2365 54.3675 43.2601 53.9445C43.2601 53.3211 43.6385 52.7423 44.2297 52.4751C43.8514 52.0298 43.6622 51.4732 43.6622 50.9166C43.6622 49.4026 44.9155 48.423 46.4764 48.423C46.973 48.423 47.4696 48.5343 47.8953 48.7347L49.3378 48L50 49.0687L48.8885 49.603C49.1486 49.9815 49.2905 50.4268 49.2669 50.8943C49.2669 52.4083 48.0135 53.3657 46.4527 53.3657C46.027 53.3657 45.6014 53.2989 45.1993 53.143C44.9392 53.2543 44.75 53.4992 44.75 53.7664C44.75 54.1672 45.0574 54.3675 45.5541 54.3675H47.2804C48.8885 54.3675 49.9054 55.1023 49.9054 56.4604C49.9054 57.3064 49.5743 57.9298 48.9122 58.3528C48.1791 58.7981 47.3277 59.0207 46.4527 58.9985C44.3716 58.9985 43 58.1079 43 56.5717C43.0236 56.0151 43.2838 55.4807 43.7331 55.1023ZM46.973 55.6811H45.7669C45.4831 55.6811 45.1757 55.6589 44.8919 55.6143C44.6554 55.8592 44.5372 56.1709 44.5608 56.5049C44.5608 57.2619 45.2939 57.7072 46.5 57.7072C47.6115 57.7072 48.3209 57.3064 48.3209 56.594C48.3209 55.9483 47.8243 55.7034 46.973 55.6811ZM46.4764 49.6698C45.7669 49.6475 45.1757 50.1819 45.152 50.8498C45.1284 51.5177 45.6959 52.0743 46.4054 52.0966C47.1149 52.1189 47.7061 51.5845 47.7297 50.9166C47.7297 50.9166 47.7297 50.9166 47.7297 50.8943C47.777 50.2709 47.2568 49.7143 46.5946 49.6698C46.5473 49.6921 46.5237 49.6921 46.4764 49.6698Z" fill="white"/>
<path d="M53.1569 51.7291H54.4553V51.4418C54.4553 50.6415 53.8732 50.2517 53.0449 50.2517C52.3957 50.2106 51.7913 50.6005 51.6122 51.175L50.2689 50.8878C50.5152 49.7592 51.6345 49 53.0449 49C54.8807 49 56 49.9439 56 51.7085V55.8945H54.7463L54.5448 54.9711C54.0299 55.6482 53.1569 56.0381 52.2614 55.9971C50.9406 55.9971 50.0003 55.2584 50.0003 53.9246C49.9779 52.5703 51.2092 51.7291 53.1569 51.7291ZM54.4553 52.8987H53.224C52.1718 52.8987 51.6122 53.2475 51.6122 53.9451C51.6122 54.4376 52.0151 54.7864 52.6196 54.7864C53.627 54.8069 54.4553 54.0682 54.4553 53.1449C54.4553 53.1244 54.4553 53.1038 54.4553 53.0628V52.8987Z" fill="white"/>
<path d="M10 59H16.8469V61.1739H12.5594V62.587H15.9281V64.7609H12.5594V66.8261H17V69H10V59Z" fill="white"/>
<path d="M20.2781 65.2681L18.2692 62H20.6509L21.5 63.4127L22.3491 62H24.7308L22.7219 65.2681L25 69H22.5562L21.5 67.1446L20.4438 69H18L20.2781 65.2681Z" fill="white"/>
<path d="M26 62.1286H28.2703V62.723C28.7117 62.2347 29.3634 61.98 30.015 62.0012C31.8018 62.0012 33 63.4023 33 65.6314C33 67.8604 31.6547 69.2615 29.7838 69.2615C29.0691 69.2615 28.5856 69.0704 28.2703 68.7308V72H26V62.1286ZM29.4685 63.9755C28.6697 63.9755 28.1652 64.5275 28.1652 65.6526C28.1652 66.7777 28.6907 67.3297 29.4685 67.3297C30.2462 67.3297 30.7718 66.7777 30.7718 65.6526C30.7718 64.5275 30.2462 63.9755 29.4685 63.9755Z" fill="white"/>
<path d="M34 62.1039H36.6667V62.8516C37.1111 62.3116 37.9753 62 38.9383 62C39.3086 62 39.679 62.0623 40 62.1869L39.4321 64.2018C39.1852 64.0772 38.8889 63.9941 38.5926 63.9941C37.5309 63.9941 36.6667 64.8249 36.6667 66.5282V69H34V62.1039Z" fill="white"/>
<path d="M47 66.1754H42.234C42.383 66.7895 42.9574 67.2398 43.6383 67.2193C44.2979 67.2193 44.6809 67.0146 45.0638 66.4006L46.8936 67.0146C46.2553 68.3246 45.1702 69 43.5532 69C41.1277 69 40 67.1988 40 65.5C40 63.8012 41.1277 62 43.5532 62C46.0638 62 47 63.7807 47 65.3567V66.1754ZM44.8298 64.6404C44.766 64.0263 44.2766 63.5965 43.5319 63.5965C42.9574 63.5965 42.4681 63.924 42.2553 64.6404H44.8298Z" fill="white"/>
<path d="M49.8321 66.3119C50.1069 67.0096 50.5649 67.3584 51.2061 67.3584C51.5725 67.3584 51.8702 67.2148 51.8702 66.907C51.8702 66.5376 51.5267 66.4145 50.7481 66.1477L50.2443 65.963C49.2137 65.5937 48.5496 64.9986 48.5496 63.9931C48.5496 62.9261 49.5802 62.0027 51.1603 62.0027C52.145 61.9617 53.1069 62.3926 53.6565 63.1313L52.3053 64.2394C51.9618 63.8495 51.5954 63.6443 51.1603 63.6443C50.9084 63.6238 50.6794 63.7674 50.6565 63.9931V64.0136C50.6565 64.2599 50.9084 64.4446 51.5496 64.6498C52.0305 64.7934 52.4885 64.9576 52.9237 65.1422C53.5878 65.4295 54 65.922 54 66.7428C54 67.9945 52.9237 69 51.2061 69C49.4885 69 48.5954 68.3023 48 67.1532L49.8321 66.3119Z" fill="white"/>
<path d="M55.8092 66.2993C56.084 66.9949 56.542 67.3427 57.1832 67.3427C57.5496 67.3427 57.8473 67.1995 57.8473 66.8926C57.8473 66.5243 57.5038 66.4016 56.7252 66.1356L56.2214 65.9515C55.1908 65.5832 54.5267 64.9898 54.5267 63.9873C54.5267 62.9234 55.5573 62.0027 57.1603 62.0027C58.145 61.9618 59.1069 62.3914 59.6565 63.128L58.3053 64.2328C57.9618 63.8441 57.5954 63.6395 57.1603 63.6395C56.9084 63.619 56.6794 63.7827 56.6565 64.0078V64.0282C56.6565 64.2737 56.8855 64.4579 57.5496 64.6625C58.0305 64.8057 58.4885 64.9694 58.9237 65.1535C59.5878 65.44 60 65.931 60 66.7494C60 67.9975 58.9237 69 57.2061 69C55.4885 69 54.5954 68.3044 54 67.1586L55.8092 66.2993Z" fill="white"/>
<path d="M48.4766 14.5887L49.3932 14.0831L55.1807 24.5615L54.2641 25.0672L48.4766 14.5887Z" fill="white" stroke="white" stroke-width="0.378763" stroke-miterlimit="10" stroke-linecap="round" stroke-linejoin="round"/>
<path d="M28.7673 34.237H50.7715V35.2843H28.7673V34.237Z" fill="white" stroke="white" stroke-width="0.378763" stroke-miterlimit="10" stroke-linecap="round" stroke-linejoin="round"/>
<path d="M48.13 21.9613L45.5109 13.1342C45.4957 13.0831 45.473 13.0358 45.4427 12.9922L43.3481 9.84848C43.2515 9.70266 43.0887 9.61365 42.9125 9.61365H39.7688V10.6609H42.6304L44.528 13.5054L47.0789 22.1033L44.7155 29.4797C44.6132 29.796 44.4124 30.0725 44.1435 30.2695C43.8746 30.4645 43.5489 30.5706 43.2174 30.5706H37.5493C37.0834 30.5763 36.6402 30.3774 36.3372 30.0233C36.0342 29.671 35.9017 29.2014 35.9774 28.7412L37.1516 23.2396C37.1762 23.0862 37.1326 22.9309 37.0323 22.8135C36.9319 22.6961 36.7842 22.6298 36.6289 22.6317H24.6013C22.3855 22.6279 20.2322 23.3646 18.4805 24.7244H20.4197C21.6999 24.0426 23.1355 23.6809 24.6013 23.679H35.9907L34.9434 28.5669C34.8165 29.3263 35.0305 30.1028 35.5286 30.6899C36.0266 31.277 36.7558 31.616 37.5265 31.616H43.2156C43.7704 31.616 44.3102 31.4398 44.759 31.1141C45.2078 30.7865 45.5393 30.3263 45.7097 29.7979L48.13 22.27C48.1622 22.1696 48.1622 22.0636 48.13 21.9613Z" fill="white" stroke="white" stroke-width="0.378763" stroke-miterlimit="10" stroke-linecap="round" stroke-linejoin="round"/>
<path d="M15.3082 31.6179H14.2363L14.098 32.0156C14.0583 32.1747 14.0961 32.3432 14.1984 32.4701C14.3007 32.597 14.4579 32.669 14.6207 32.6652H28.7656V31.6179H15.2665H15.3082Z" fill="white" stroke="white" stroke-width="0.378763" stroke-miterlimit="10" stroke-linecap="round" stroke-linejoin="round"/>
<path d="M56.5346 39.9999C54.8661 39.9999 53.2678 39.3371 52.0898 38.1591C50.91 36.9793 50.249 35.3809 50.249 33.7143C50.249 32.0459 50.9119 30.4475 52.0898 29.2696C53.2697 28.0897 54.868 27.4288 56.5346 27.4288C58.2011 27.4288 59.8014 28.0916 60.9794 29.2696C62.1592 30.4494 62.8202 32.0478 62.8202 33.7143C62.8202 35.3809 62.1573 36.9812 60.9794 38.1591C59.7995 39.339 58.2011 39.9999 56.5346 39.9999ZM56.5346 28.4742C55.1445 28.4742 53.8132 29.0253 52.8303 30.0081C51.8474 30.991 51.2963 32.3224 51.2963 33.7124C51.2963 35.1025 51.8474 36.4339 52.8303 37.4167C53.8132 38.3996 55.1445 38.9507 56.5346 38.9507C57.9246 38.9507 59.256 38.3977 60.2389 37.4167C61.2218 36.4339 61.7729 35.1025 61.7729 33.7124C61.7729 32.3224 61.2199 30.991 60.2389 30.0081C59.256 29.0272 57.9228 28.4742 56.5346 28.4742Z" fill="white" stroke="white" stroke-width="0.378763" stroke-miterlimit="10" stroke-linecap="round" stroke-linejoin="round"/>
<path d="M44.7457 12.1685C44.7457 11.8787 44.3745 10.6629 45.2703 10.6629H50.5085V11.7102H45.7929V13.8047H50.5085V14.852H45.2703" fill="white"/>
<path d="M44.7457 12.1685C44.7457 11.8787 44.3745 10.6629 45.2703 10.6629H50.5085V11.7102H45.7929V13.8047H50.5085V14.852H45.2703" stroke="white" stroke-width="0.378763" stroke-miterlimit="10" stroke-linecap="round" stroke-linejoin="round"/>
<path d="M29.0914 32.0004C29.0251 31.7675 28.8092 31.6084 28.5668 31.6179H25.1106C24.9118 31.6179 24.73 31.7296 24.6429 31.9076C24.5539 32.0857 24.5728 32.2978 24.6921 32.4569L25.9647 32.6671H28.1445C28.2165 33.0117 28.2525 33.3621 28.2544 33.7143C28.2544 35.5854 27.2563 37.3164 25.6352 38.2519C24.0141 39.1875 22.018 39.1875 20.3969 38.2519C18.7758 37.3164 17.7778 35.5873 17.7778 33.7143C17.7797 33.3621 17.8157 33.0117 17.8876 32.6671H20.0466L21.3628 32.4569C21.4821 32.2978 21.501 32.0857 21.412 31.9076C21.323 31.7296 21.1412 31.6179 20.9442 31.6179H17.4824C17.2399 31.6084 17.0241 31.7675 16.9578 32.0004C16.4218 33.8962 16.8025 35.932 17.9918 37.5039C19.1792 39.0757 21.0351 39.9999 23.0047 39.9999C24.9819 40.0113 26.8492 39.0928 28.046 37.5209C29.2429 35.9471 29.6312 33.9018 29.0914 32.0004Z" fill="white" stroke="white" stroke-width="0.378763" stroke-miterlimit="10" stroke-linecap="round" stroke-linejoin="round"/>
<path d="M52.8664 15.9011C51.1695 15.9011 49.2 14.5281 49.2 12.7574C49.2 10.9867 51.1695 9.61365 52.8664 9.61365C53.0065 9.61365 53.1391 9.66857 53.2376 9.76705C53.336 9.86552 53.391 9.99809 53.391 10.1382V15.3765C53.391 15.5148 53.336 15.6492 53.2376 15.7477C53.1391 15.8462 53.0065 15.9011 52.8664 15.9011ZM52.3418 10.7196C51.2945 10.945 50.2472 11.7669 50.2472 12.7574C50.2472 13.7478 51.2945 14.5698 52.3418 14.7951V10.7196Z" fill="white" stroke="white" stroke-width="0.378763" stroke-miterlimit="10" stroke-linecap="round" stroke-linejoin="round"/>
<path d="M46.9578 34.3999C46.7627 31.7751 47.6756 29.1881 49.4709 27.2659C51.2681 25.3418 53.7869 24.2567 56.4193 24.2737C59.0517 24.2888 61.5572 25.4043 63.3298 27.3492C63.5154 27.55 63.5154 27.8606 63.3298 28.0613L61.3868 30.1559L60.6217 29.4438L62.2257 27.7204C60.5932 26.124 58.3813 25.2604 56.0973 25.3323C53.8153 25.4043 51.6601 26.4042 50.1318 28.1011C48.6035 29.7979 47.8346 32.044 47.9994 34.3223L46.9578 34.3999Z" fill="white" stroke="white" stroke-width="0.378763" stroke-miterlimit="10" stroke-linecap="round" stroke-linejoin="round"/>
<path d="M16.0733 29.6843C16.0733 29.2677 15.7362 28.9325 15.3214 28.9325H11.4088C10.9941 28.9325 10.657 29.2696 10.657 29.6843C10.657 30.1009 10.9941 30.4362 11.4088 30.4362H15.3214C15.7381 30.438 16.0733 30.1009 16.0733 29.6843Z" fill="white"/>
<path d="M18.4823 26.9667C18.4823 26.55 18.1452 26.2148 17.7305 26.2148H9.75184C9.3371 26.2148 9 26.5519 9 26.9667C9 27.3833 9.3371 27.7185 9.75184 27.7185H17.7286C18.1452 27.7185 18.4823 27.3814 18.4823 26.9667Z" fill="white"/>
<path d="M20.9292 24.2471C20.9292 23.8305 20.5921 23.4953 20.1773 23.4953H11.0321C10.6174 23.4953 10.2803 23.8324 10.2803 24.2471C10.2803 24.6638 10.6174 24.9157 11.0321 24.9157H20.4463C20.4463 24.9157 20.9292 24.6638 20.9292 24.2471Z" fill="white"/>
<path d="M19.2753 20.4032H28.4504L28.9218 17.7288H24.3828L27.6684 14.3858C28.922 13.1059 29.6276 12.0743 29.8465 10.8326C30.2439 8.57844 28.9336 6.87827 26.1985 6.87827C24.9183 6.87827 23.8262 7.24122 22.9451 7.94804C22.064 8.65485 21.463 9.53359 21.142 10.5843L23.8924 11.1573C24.2362 10.0876 24.8542 9.55269 25.7271 9.55269C26.5224 9.55269 26.9611 10.1449 26.8231 10.9281C26.7119 11.5585 26.277 12.2653 25.5443 13.0103L19.5245 18.9896L19.2753 20.4032ZM30.0389 20.4032H32.213L32.7216 17.518C32.9403 16.2777 33.4663 15.6249 34.2484 15.6249C34.7389 15.6249 35.048 15.9774 34.9398 16.591L34.2678 20.4032H36.4419L37.2175 16.0035C37.4822 14.5022 36.8248 13.7189 35.3268 13.7189C34.5182 13.7189 33.6894 14.0583 33.2395 14.5805L33.8424 11.16H31.6683L30.0389 20.4032Z" fill="white"/>
<defs>
<linearGradient id="paint0_linear_712_25" x1="-3.46269" y1="5.41076" x2="82.142" y2="60.1352" gradientUnits="userSpaceOnUse">
<stop offset="0.2373" stop-color="#08A96C"/>
<stop offset="0.3809" stop-color="#1FAB6F"/>
<stop offset="0.5335" stop-color="#3EB079"/>
<stop offset="0.6903" stop-color="#61B98A"/>
<stop offset="0.8489" stop-color="#86C7A2"/>
<stop offset="0.9879" stop-color="#A7D5BD"/>
</linearGradient>
</defs>
</svg>
